<svg width="61" height="60" viewBox="0 0 61 60" fill="none" xmlns="http://www.w3.org/2000/svg">
<path d="M37.8077 53.67L32.9158 49.7574L32.3448 50.0835C31.1565 50.7629 29.8713 51.2942 28.5242 51.6619L27.8903 51.8352L27.1984 58.0645H21.1877L20.4958 51.8352L19.8619 51.6619C18.5139 51.2942 17.2287 50.7629 16.0413 50.0835L15.4703 49.7574L10.5784 53.67L6.32903 49.4206L10.2426 44.5297L9.91548 43.9587C9.23613 42.7703 8.70484 41.4852 8.3371 40.139L8.16387 39.5042L1.93548 38.8113V32.8016L8.16581 32.1097L8.33903 31.4748C8.70677 30.1287 9.23806 28.8435 9.91742 27.6552L10.2445 27.0842L6.33097 22.1932L10.5803 17.9439L15.4723 21.8564L16.0432 21.5303C17.2316 20.851 18.5168 20.3197 19.8639 19.9519L20.4977 19.7787L21.1887 13.5484H27.1994L27.8913 19.7777L28.5252 19.951C29.8732 20.3187 31.1584 20.85 32.3458 21.5294L32.9168 21.8555L37.8087 17.9429L42.0581 22.1923L38.1445 27.0832L38.4716 27.6542C39.151 28.8426 39.6823 30.1277 40.05 31.4739L41.9177 30.9648C41.5664 29.6768 41.0806 28.439 40.471 27.2748L44.6516 22.0481L37.9529 15.3494L32.7261 19.53C31.7555 19.0219 30.7316 18.599 29.6719 18.269L28.9306 11.6129H19.4574L18.7171 18.269C17.6565 18.599 16.6335 19.0219 15.6629 19.53L10.4361 15.3494L3.73742 22.0481L7.91806 27.2748C7.41 28.2455 6.9871 29.2694 6.6571 30.329L0 31.0694V40.5435L6.6571 41.2839C6.9871 42.3435 7.40903 43.3665 7.91806 44.3381L3.73742 49.5648L10.4361 56.2635L15.6629 52.0829C16.6335 52.591 17.6574 53.0139 18.7171 53.3439L19.4565 60H28.9297L29.67 53.3439C30.7306 53.0139 31.7535 52.591 32.7242 52.0829L37.951 56.2635L44.0371 50.1764L42.6687 48.8081L37.8077 53.67Z" fill="white" fill-opacity="0.25"/>
<path d="M33.211 32.2877L35.0139 31.5832C33.2613 27.0948 29.0139 24.1935 24.1935 24.1935C17.79 24.1935 12.5806 29.4029 12.5806 35.8065C12.5806 42.21 17.79 47.4194 24.1935 47.4194C26.4532 47.4194 28.6442 46.77 30.5284 45.541L29.4716 43.919C27.9019 44.9429 26.0768 45.4839 24.1935 45.4839C18.8574 45.4839 14.5161 41.1426 14.5161 35.8065C14.5161 30.4703 18.8574 26.129 24.1935 26.129C28.2106 26.129 31.7516 28.5465 33.211 32.2877Z" fill="white" fill-opacity="0.25"/>
<path d="M60 28.9306V19.4565L53.3429 18.7161C53.0129 17.6565 52.591 16.6335 52.0819 15.6619L56.2626 10.4352L49.5639 3.73645L44.3371 7.9171C43.3664 7.40903 42.3426 6.98613 41.2829 6.65613L40.5435 0H31.0703L30.33 6.65613C29.2693 6.98613 28.2464 7.40903 27.2758 7.9171L22.049 3.73645L15.9629 9.82355L17.3313 11.1919L22.1922 6.33L27.0842 10.2426L27.6551 9.91645C28.8435 9.2371 30.1287 8.70581 31.4758 8.33806L32.1097 8.16484L32.8016 1.93548H38.8122L39.5042 8.16484L40.1381 8.33806C41.4861 8.70581 42.7713 9.2371 43.9587 9.91645L44.5297 10.2426L49.4216 6.33L53.671 10.5794L49.7574 15.4703L50.0845 16.0413C50.7639 17.2297 51.2952 18.5148 51.6629 19.861L51.8361 20.4958L58.0664 21.1877V27.1974L51.8361 27.8894L51.6629 28.5242C51.2952 29.8703 50.7639 31.1555 50.0845 32.3439L49.7574 32.9148L53.671 37.8058L49.4216 42.0552L44.5297 38.1426L43.9587 38.4687C42.7703 39.1481 41.4851 39.6794 40.1381 40.0471L39.5042 40.2203L38.8113 46.4516H32.8006L32.1087 40.2223L31.4748 40.049C30.1268 39.6813 28.8416 39.15 27.6542 38.4706L27.0832 38.1445L22.1913 42.0571L17.9419 37.8077L21.8555 32.9168L21.5284 32.3458C20.849 31.1574 20.3177 29.8723 19.95 28.5261L18.0822 29.0352C18.4335 30.3232 18.9193 31.561 19.529 32.7252L15.3484 37.9519L22.0471 44.6506L27.2739 40.47C28.2445 40.9781 29.2684 41.401 30.3281 41.731L31.0693 48.3871H40.5426L41.2829 41.731C42.3435 41.401 43.3664 40.9781 44.3371 40.47L49.5639 44.6506L56.2626 37.9519L52.0819 32.7252C52.59 31.7545 53.0129 30.7306 53.3429 29.671L60 28.9306Z" fill="white" fill-opacity="0.25"/>
<path d="M31.4081 15.571C32.7774 14.8713 34.2571 14.5161 35.8065 14.5161C41.1426 14.5161 45.4839 18.8574 45.4839 24.1935C45.4839 29.5297 41.1426 33.871 35.8065 33.871C31.7894 33.871 28.2484 31.4536 26.789 27.7123L24.9861 28.4168C26.7387 32.9052 30.9861 35.8065 35.8065 35.8065C42.21 35.8065 47.4194 30.5971 47.4194 24.1935C47.4194 17.79 42.21 12.5806 35.8065 12.5806C33.9474 12.5806 32.1716 13.0065 30.5274 13.8474L31.4081 15.571Z" fill="white" fill-opacity="0.25"/>
<path d="M36.7742 5.80645H34.8387V7.74194H36.7742V5.80645Z" fill="white" fill-opacity="0.25"/>
<path d="M22.1211 36.5082L23.4897 37.8767L24.8583 36.5082L23.4897 35.1396L22.1211 36.5082Z" fill="white" fill-opacity="0.25"/>
<path d="M36.7742 40.6452H34.8387V42.5806H36.7742V40.6452Z" fill="white" fill-opacity="0.25"/>
<path d="M46.7545 36.5092L48.123 37.8777L49.4916 36.5092L48.123 35.1406L46.7545 36.5092Z" fill="white" fill-opacity="0.25"/>
<path d="M54.1935 23.2258H52.2581V25.1613H54.1935V23.2258Z" fill="white" fill-opacity="0.25"/>
<path d="M48.1233 10.5099L46.7547 11.8785L48.1233 13.2471L49.4919 11.8785L48.1233 10.5099Z" fill="white" fill-opacity="0.25"/>
<path d="M25.1613 17.4194H23.2258V19.3548H25.1613V17.4194Z" fill="white" fill-opacity="0.25"/>
<path d="M13.2464 23.4893L11.8778 22.1207L10.5092 23.4893L11.8778 24.8579L13.2464 23.4893Z" fill="white" fill-opacity="0.25"/>
<path d="M7.74194 34.8387H5.80645V36.7742H7.74194V34.8387Z" fill="white" fill-opacity="0.25"/>
<path d="M11.8773 49.49L13.2458 48.1214L11.8773 46.7528L10.5087 48.1214L11.8773 49.49Z" fill="white" fill-opacity="0.25"/>
<path d="M25.1613 52.2581H23.2258V54.1935H25.1613V52.2581Z" fill="white" fill-opacity="0.25"/>
<path d="M37.8786 23.4906L36.51 22.122L35.1414 23.4906L36.51 24.8591L37.8786 23.4906Z" fill="white" fill-opacity="0.25"/>
</svg>
