<svg width="60" height="60" viewBox="0 0 60 60" fill="none" xmlns="http://www.w3.org/2000/svg">
<path d="M41.8664 44.9961L43.7642 44.9187L43.6858 42.9852L40.5319 43.1119L38.6032 40.3897L41.6487 40.4361L41.6777 38.5006L37.2155 38.4329L35.759 36.3774L40.9926 36.1655L40.9142 34.2319L34.4245 34.4932L33.5506 33.2594C34.3432 32.3981 34.8387 31.26 34.8387 30C34.8387 29.819 34.8048 29.6468 34.7855 29.4706L36.2593 28.9945L41.3197 32.9923L42.5197 31.4748L38.4755 28.2794L40.9026 27.4955L44.4464 29.9884L45.5593 28.4042L43.2087 26.7503L46.4013 25.7187L48.7055 27.539L49.9055 26.0216L48.6164 25.0026L51.5884 24.0426L50.9932 22.2019L47.9777 23.1765L48.4432 21.5206L46.5793 20.9971L45.7664 23.8906L42.5777 24.9213L43.5261 22.1468L41.6942 21.5216L40.2784 25.6645L37.859 26.4464L39.2623 21.4519L37.3984 20.9284L35.6477 27.1606L34.1923 27.631C33.5129 26.4348 32.3564 25.5445 30.9677 25.261V23.7455L36.3435 20.1619L35.2703 18.5516L30.9677 21.4171V18.871L34.4516 16.2581L33.2903 14.7097L30.9677 16.4516V13.0984L33.4403 11.4503L32.3671 9.84L30.9677 10.7719V7.74194H29.0323V10.7719L27.6339 9.84L26.5606 11.4503L29.0323 13.0984V16.4516L26.7097 14.7097L25.5484 16.2581L29.0323 18.871V21.4171L24.7306 18.5497L23.6574 20.16L29.0323 23.7435V25.259C27.6435 25.5416 26.4881 26.4329 25.8077 27.629L24.3523 27.1587L22.6016 20.9265L20.7377 21.45L22.141 26.4445L19.7216 25.6626L18.3058 21.5197L16.4739 22.1448L17.4223 24.9194L14.2335 23.8887L13.4206 20.9952L11.5568 21.5187L12.0223 23.1745L9.00677 22.2L8.41161 24.0406L11.3835 25.0006L10.0945 26.0197L11.2945 27.5371L13.5987 25.7168L16.7913 26.7484L14.4406 28.4023L15.5535 29.9865L19.0974 27.4935L21.5245 28.2774L17.4803 31.4729L18.6803 32.9903L23.7406 28.9926L25.2145 29.4687C25.1952 29.6468 25.1613 29.819 25.1613 30C25.1613 31.26 25.6568 32.3981 26.4484 33.2603L25.5745 34.4942L19.0848 34.2329L19.0064 36.1665L24.24 36.3784L22.7835 38.4339L18.3213 38.5016L18.3503 40.4371L21.3958 40.3906L19.4671 43.1129L16.3132 42.9861L16.2348 44.9197L18.1326 44.9971L16.1264 47.8287L17.7058 48.9474L19.5571 46.3335L20.0632 47.701L21.8787 47.0303L20.9139 44.4194L22.8619 41.669L23.6739 44.3042L25.5232 43.7332L24.2729 39.6765L25.7613 37.5765L27.5323 42.361L29.3477 41.6903L27.1171 35.6632L28.0113 34.4013C28.62 34.6761 29.2897 34.8387 30 34.8387C30.7103 34.8387 31.38 34.6761 31.9877 34.4003L32.8819 35.6623L30.6513 41.6894L32.4668 42.36L34.2377 37.5755L35.7261 39.6755L34.4758 43.7323L36.3252 44.3032L37.1371 41.6681L39.0852 44.4184L38.1194 47.0284L39.9348 47.699L40.441 46.3316L42.2923 48.9455L43.8726 47.8277L41.8664 44.9961ZM30 32.9032C28.3994 32.9032 27.0968 31.6006 27.0968 30C27.0968 28.3994 28.3994 27.0968 30 27.0968C31.6006 27.0968 32.9032 28.3994 32.9032 30C32.9032 31.6006 31.6006 32.9032 30 32.9032Z" fill="white" fill-opacity="0.25"/>
<path d="M55.1613 0H53.2258V2.90323H55.1613V0Z" fill="white" fill-opacity="0.25"/>
<path d="M52.826 3.06983L50.7728 1.01725L49.4044 2.38602L51.4576 4.4386L52.826 3.06983Z" fill="white" fill-opacity="0.25"/>
<path d="M51.2903 4.83871H48.3871V6.77419H51.2903V4.83871Z" fill="white" fill-opacity="0.25"/>
<path d="M49.4045 9.22981L50.7731 10.5984L52.826 8.54552L51.4574 7.17694L49.4045 9.22981Z" fill="white" fill-opacity="0.25"/>
<path d="M55.1613 8.70968H53.2258V11.6129H55.1613V8.70968Z" fill="white" fill-opacity="0.25"/>
<path d="M55.5594 8.54474L57.6126 10.5973L58.981 9.22855L56.9278 7.17596L55.5594 8.54474Z" fill="white" fill-opacity="0.25"/>
<path d="M60 4.83871H57.0968V6.77419H60V4.83871Z" fill="white" fill-opacity="0.25"/>
<path d="M58.9826 2.38453L57.6141 1.01595L55.5612 3.06882L56.9298 4.4374L58.9826 2.38453Z" fill="white" fill-opacity="0.25"/>
<path d="M6.77419 46.4516H4.83871V49.3548H6.77419V46.4516Z" fill="white" fill-opacity="0.25"/>
<path d="M1.01728 48.8377L3.07045 50.8903L4.43883 49.5215L2.38567 47.4689L1.01728 48.8377Z" fill="white" fill-opacity="0.25"/>
<path d="M2.90323 51.2903H0V53.2258H2.90323V51.2903Z" fill="white" fill-opacity="0.25"/>
<path d="M1.0168 55.6784L2.38538 57.047L4.43825 54.9941L3.06967 53.6255L1.0168 55.6784Z" fill="white" fill-opacity="0.25"/>
<path d="M6.77419 55.1613H4.83871V58.0645H6.77419V55.1613Z" fill="white" fill-opacity="0.25"/>
<path d="M7.17756 54.9978L9.23072 57.0504L10.5991 55.6816L8.54595 53.629L7.17756 54.9978Z" fill="white" fill-opacity="0.25"/>
<path d="M11.6129 51.2903H8.70968V53.2258H11.6129V51.2903Z" fill="white" fill-opacity="0.25"/>
<path d="M10.5949 48.8373L9.2265 47.4686L7.17334 49.5211L8.54173 50.8899L10.5949 48.8373Z" fill="white" fill-opacity="0.25"/>
<path d="M53.2258 35.8065H51.2903V38.7097H53.2258V35.8065Z" fill="white" fill-opacity="0.25"/>
<path d="M47.4681 38.1923L49.5213 40.2449L50.8897 38.8761L48.8365 36.8235L47.4681 38.1923Z" fill="white" fill-opacity="0.25"/>
<path d="M49.3548 40.6452H46.4516V42.5806H49.3548V40.6452Z" fill="white" fill-opacity="0.25"/>
<path d="M47.4631 45.0322L48.8317 46.4008L50.8846 44.3479L49.516 42.9793L47.4631 45.0322Z" fill="white" fill-opacity="0.25"/>
<path d="M53.2258 44.5161H51.2903V47.4194H53.2258V44.5161Z" fill="white" fill-opacity="0.25"/>
<path d="M53.6253 44.3508L55.6785 46.4034L57.0469 45.0346L54.9937 42.982L53.6253 44.3508Z" fill="white" fill-opacity="0.25"/>
<path d="M58.0645 40.6452H55.1613V42.5806H58.0645V40.6452Z" fill="white" fill-opacity="0.25"/>
<path d="M54.9953 40.2478L57.0484 38.1952L55.6801 36.8264L53.6269 38.879L54.9953 40.2478Z" fill="white" fill-opacity="0.25"/>
<path d="M15.4839 4.83871H13.5484V7.74194H15.4839V4.83871Z" fill="white" fill-opacity="0.25"/>
<path d="M13.1469 7.90706L11.0937 5.85447L9.72535 7.22325L11.7785 9.27583L13.1469 7.90706Z" fill="white" fill-opacity="0.25"/>
<path d="M11.6129 9.67742H8.70968V11.6129H11.6129V9.67742Z" fill="white" fill-opacity="0.25"/>
<path d="M9.7259 14.0664L11.0945 15.435L13.1474 13.3821L11.7788 12.0136L9.7259 14.0664Z" fill="white" fill-opacity="0.25"/>
<path d="M15.4839 13.5484H13.5484V16.4516H15.4839V13.5484Z" fill="white" fill-opacity="0.25"/>
<path d="M19.3042 14.0639L17.2511 12.0113L15.8827 13.3801L17.9358 15.4327L19.3042 14.0639Z" fill="white" fill-opacity="0.25"/>
<path d="M20.3226 9.67742H17.4194V11.6129H20.3226V9.67742Z" fill="white" fill-opacity="0.25"/>
<path d="M19.3059 7.22696L17.9373 5.85838L15.8845 7.91125L17.253 9.27983L19.3059 7.22696Z" fill="white" fill-opacity="0.25"/>
<path d="M8.70968 33.871H6.77419V35.8065H8.70968V33.871Z" fill="white" fill-opacity="0.25"/>
<path d="M8.70968 37.7419H6.77419V39.6774H8.70968V37.7419Z" fill="white" fill-opacity="0.25"/>
<path d="M10.6452 35.8065H8.70968V37.7419H10.6452V35.8065Z" fill="white" fill-opacity="0.25"/>
<path d="M6.77419 35.8065H4.83871V37.7419H6.77419V35.8065Z" fill="white" fill-opacity="0.25"/>
<path d="M42.5806 6.77419H40.6452V8.70968H42.5806V6.77419Z" fill="white" fill-opacity="0.25"/>
<path d="M42.5806 10.6452H40.6452V12.5806H42.5806V10.6452Z" fill="white" fill-opacity="0.25"/>
<path d="M44.5161 8.70968H42.5806V10.6452H44.5161V8.70968Z" fill="white" fill-opacity="0.25"/>
<path d="M40.6452 8.70968H38.7097V10.6452H40.6452V8.70968Z" fill="white" fill-opacity="0.25"/>
<path d="M47.4194 54.1935H45.4839V56.129H47.4194V54.1935Z" fill="white" fill-opacity="0.25"/>
<path d="M47.4194 58.0645H45.4839V60H47.4194V58.0645Z" fill="white" fill-opacity="0.25"/>
<path d="M49.3548 56.129H47.4194V58.0645H49.3548V56.129Z" fill="white" fill-opacity="0.25"/>
<path d="M45.4839 56.129H43.5484V58.0645H45.4839V56.129Z" fill="white" fill-opacity="0.25"/>
<path d="M28.0645 49.3548H26.129V51.2903H28.0645V49.3548Z" fill="white" fill-opacity="0.25"/>
<path d="M28.0645 53.2258H26.129V55.1613H28.0645V53.2258Z" fill="white" fill-opacity="0.25"/>
<path d="M30 51.2903H28.0645V53.2258H30V51.2903Z" fill="white" fill-opacity="0.25"/>
<path d="M26.129 51.2903H24.1935V53.2258H26.129V51.2903Z" fill="white" fill-opacity="0.25"/>
</svg>
