<svg width="60" height="60" viewBox="0 0 60 60" fill="none" xmlns="http://www.w3.org/2000/svg">
<path d="M36.9355 32.9032H23.3871C20.719 32.9032 18.5484 35.0739 18.5484 37.7419V46.4516H41.7742V37.7419C41.7742 35.0739 39.6036 32.9032 36.9355 32.9032ZM27.2581 44.5161H25.3226V38.7097H27.2581V44.5161ZM31.129 44.5161H29.1936V38.7097H31.129V44.5161ZM35 44.5161H33.0645V38.7097H35V44.5161ZM39.8387 44.5161H36.9355V38.7097C36.9355 37.6423 36.0674 36.7742 35 36.7742H25.3226C24.2552 36.7742 23.3871 37.6423 23.3871 38.7097V44.5161H20.4839V37.7419C20.4839 36.1413 21.7865 34.8387 23.3871 34.8387H36.9355C38.5361 34.8387 39.8387 36.1413 39.8387 37.7419V44.5161Z" fill="white" fill-opacity="0.25"/>
<path d="M53.3871 5.80645V4.83871C53.3871 2.17064 51.2165 0 48.5484 0H11.7742C9.10613 0 6.93548 2.17064 6.93548 4.83871V5.80645H5V7.74194H6.93548V43.5484C6.93548 45.149 8.23806 46.4516 9.83871 46.4516V57.0968C9.83871 58.6974 11.1413 60 12.7419 60H16.6129C18.2135 60 19.5161 58.6974 19.5161 57.0968V52.2581H40.8065V57.0968C40.8065 58.6974 42.109 60 43.7097 60H47.5806C49.1813 60 50.4839 58.6974 50.4839 57.0968V46.4516C52.0845 46.4516 53.3871 45.149 53.3871 43.5484V7.74194H55.3226V5.80645H53.3871ZM17.5806 57.0968C17.5806 57.63 17.1471 58.0645 16.6129 58.0645H12.7419C12.2077 58.0645 11.7742 57.63 11.7742 57.0968V47.2287L15.1274 52.2581H17.5806V57.0968ZM48.5484 57.0968C48.5484 57.63 48.1148 58.0645 47.5806 58.0645H43.7097C43.1755 58.0645 42.7419 57.63 42.7419 57.0968V52.2581H45.1952L48.5484 47.2287V57.0968ZM51.4516 43.5484C51.4516 44.0816 51.0181 44.5161 50.4839 44.5161H43.7097V46.4516H46.7406L44.1597 50.3226H16.1629L13.5819 46.4516H16.6129V44.5161H9.83871C9.30452 44.5161 8.87097 44.0816 8.87097 43.5484V36.0784L14.6774 37.53V40.6452H10.8065V42.5806H14.6774C15.7448 42.5806 16.6129 41.7126 16.6129 40.6452V37.53C16.6129 36.6406 16.01 35.8684 15.1458 35.6526L9.17871 34.1603C9.85613 32.3042 11.6223 30.9677 13.7097 30.9677H46.6129C48.7003 30.9677 50.4665 32.3042 51.1439 34.1603L45.1768 35.6526C44.3126 35.8674 43.7097 36.6397 43.7097 37.53V40.6452C43.7097 41.7126 44.5777 42.5806 45.6452 42.5806H49.5161V40.6452H45.6452V37.53L51.4516 36.0784V43.5484ZM38.8719 9.49935V11.6129H21.4516V9.49935C22.2713 9.2071 22.9168 8.56161 23.209 7.74194H37.1145C37.4068 8.56161 38.0523 9.2071 38.8719 9.49935ZM38.871 6.77419C38.871 6.24097 39.3045 5.80645 39.8387 5.80645C40.3729 5.80645 40.8065 6.24097 40.8065 6.77419C40.8065 7.30742 40.3729 7.74194 39.8387 7.74194C39.3045 7.74194 38.871 7.30742 38.871 6.77419ZM20.4839 7.74194C19.9497 7.74194 19.5161 7.30742 19.5161 6.77419C19.5161 6.24097 19.9497 5.80645 20.4839 5.80645C21.0181 5.80645 21.4516 6.24097 21.4516 6.77419C21.4516 7.30742 21.0181 7.74194 20.4839 7.74194ZM43.1484 13.5484C44.629 13.5484 45.8697 14.6584 46.0332 16.1303L47.4732 29.0932C47.1906 29.0574 46.9052 29.0323 46.6129 29.0323H45.5397L44.1694 17.1968C44.0552 16.2203 43.2297 15.4839 42.2465 15.4839H18.0761C17.091 15.4839 16.2655 16.2213 16.1542 17.1968L14.7829 29.0323H13.7097C13.4174 29.0323 13.1319 29.0574 12.8494 29.0932L14.2894 16.1313C14.4529 14.6584 15.6935 13.5484 17.1742 13.5484H43.1484ZM23.3871 25.1613C21.05 25.1613 19.0961 26.8268 18.6461 29.0323H16.731L18.0752 17.4194H42.2465L43.5906 29.0323H28.1281C27.6781 26.8268 25.7242 25.1613 23.3871 25.1613ZM26.1123 29.0323H20.6629C21.0635 27.9087 22.1281 27.0968 23.3881 27.0968C24.6481 27.0968 25.7116 27.9087 26.1123 29.0323ZM51.4516 5.80645H46.6129V7.74194H51.4516V31.0752C50.8884 30.4994 50.2235 30.029 49.4871 29.6816L47.9581 15.9174C47.6842 13.4632 45.6171 11.6129 43.1484 11.6129H40.8065V9.49935C41.6261 9.2071 42.2716 8.56161 42.5639 7.74194H44.6774V5.80645H42.5639C42.1632 4.6829 41.0987 3.87097 39.8387 3.87097C38.5787 3.87097 37.5142 4.6829 37.1135 5.80645H23.209C22.8084 4.6829 21.7439 3.87097 20.4839 3.87097C19.2239 3.87097 18.1594 4.6829 17.7587 5.80645H15.6452V7.74194H17.7587C18.051 8.56161 18.6965 9.2071 19.5161 9.49935V11.6129H17.1742C14.7055 11.6129 12.6374 13.4632 12.3645 15.9174L10.8355 29.6816C10.099 30.029 9.43323 30.4994 8.87097 31.0752V7.74194H13.7097V5.80645H8.87097V4.83871C8.87097 3.23806 10.1735 1.93548 11.7742 1.93548H48.5484C50.149 1.93548 51.4516 3.23806 51.4516 4.83871V5.80645Z" fill="white" fill-opacity="0.25"/>
</svg>
