<svg width="60" height="60" viewBox="0 0 60 60" fill="none" xmlns="http://www.w3.org/2000/svg">
<path d="M19.3548 13.949V4.35484L13.5484 0V9.27677L12.18 10.6452H7.17484L5.80645 9.27677V0L0 4.35484V13.949L2.90323 16.8523V43.1477L0 46.051V55.6452L5.80645 60V51.691L7.17484 50.3226H12.18L13.5484 51.691V60L19.3548 55.6452V46.051L16.4516 43.1477V16.8523L19.3548 13.949ZM17.4194 46.8523V54.6774L15.4839 56.129V50.8897L12.9813 48.3871H6.37355L3.87097 50.8897V56.129L1.93548 54.6774V46.8523L4.83871 43.949V16.051L1.93548 13.1477V5.32258L3.87097 3.87097V10.0781L6.37355 12.5806H12.9813L15.4839 10.0781V3.87097L17.4194 5.32258V13.1477L14.5161 16.051V43.949L17.4194 46.8523Z" fill="white" fill-opacity="0.25"/>
<path d="M60 34.6906V25.3103L56.2539 24.6852C55.9597 23.7639 55.5939 22.8755 55.1603 22.0326L57.3648 18.9474L50.731 12.3145L47.6458 14.5181C46.8 14.0835 45.9116 13.7177 44.9932 13.4245L44.3681 9.67742H34.9868L34.3626 13.4235C33.4442 13.7168 32.5558 14.0826 31.71 14.5171L28.6248 12.3135L21.991 18.9464L24.1955 22.0316C23.7619 22.8745 23.3961 23.7629 23.1019 24.6842L19.3548 25.3094V34.6897L23.101 35.3148C23.3952 36.2361 23.761 37.1245 24.1945 37.9674L21.99 41.0526L28.6239 47.6865L31.709 45.4819C32.5539 45.9155 33.4423 46.2823 34.3616 46.5755L34.9868 50.3226H44.3681L44.9923 46.5765C45.9116 46.2832 46.8 45.9165 47.6448 45.4829L50.73 47.6874L57.3639 41.0535L55.1594 37.9684C55.5929 37.1255 55.9587 36.2371 56.2529 35.3158L60 34.6906ZM54.8371 40.8435L50.5219 45.1587L47.7803 43.201L47.2442 43.5019C46.1961 44.0903 45.0629 44.5587 43.8765 44.8926L43.2852 45.059L42.7287 48.3871H36.6261L36.0706 45.0581L35.4794 44.8916C34.2929 44.5577 33.1597 44.0903 32.1116 43.501L31.5755 43.2L28.8339 45.1577L24.5187 40.8426L26.4774 38.1019L26.1765 37.5658C25.589 36.5197 25.1216 35.3865 24.7858 34.1971L24.6194 33.6058L21.2903 33.0513V26.9477L24.6194 26.3932L24.7858 25.8019C25.1206 24.6126 25.589 23.4794 26.1765 22.4332L26.4774 21.8971L24.5187 19.1565L28.8339 14.8403L31.5755 16.7981L32.1116 16.4971C33.1616 15.9087 34.2948 15.4403 35.4803 15.1074L36.0716 14.941L36.6261 11.6129H42.7287L43.2842 14.9419L43.8755 15.1084C45.061 15.4413 46.1942 15.9087 47.2442 16.4981L47.7803 16.799L50.5219 14.8413L54.8371 19.1574L52.8784 21.8981L53.1794 22.4342C53.7668 23.4803 54.2342 24.6135 54.57 25.8029L54.7365 26.3942L58.0645 26.9487V33.0523L54.7355 33.6068L54.569 34.1981C54.2342 35.3874 53.7658 36.5206 53.1784 37.5668L52.8774 38.1029L54.8371 40.8435Z" fill="white" fill-opacity="0.25"/>
<path d="M9.67742 17.4194C8.07677 17.4194 6.77419 18.7219 6.77419 20.3226V40.6452C6.77419 42.2458 8.07677 43.5484 9.67742 43.5484C11.2781 43.5484 12.5806 42.2458 12.5806 40.6452V20.3226C12.5806 18.7219 11.2781 17.4194 9.67742 17.4194ZM10.6452 40.6452C10.6452 41.1794 10.2106 41.6129 9.67742 41.6129C9.14419 41.6129 8.70968 41.1794 8.70968 40.6452V39.6774H10.6452V40.6452ZM10.6452 37.7419H8.70968V35.8065H10.6452V37.7419ZM10.6452 33.871H8.70968V31.9355H10.6452V33.871ZM10.6452 30H8.70968V28.0645H10.6452V30ZM10.6452 26.129H8.70968V24.1935H10.6452V26.129ZM10.6452 22.2581H8.70968V20.3226C8.70968 19.7884 9.14419 19.3548 9.67742 19.3548C10.2106 19.3548 10.6452 19.7884 10.6452 20.3226V22.2581Z" fill="white" fill-opacity="0.25"/>
<path d="M47.429 37.2958C49.2948 35.3148 50.3226 32.7232 50.3226 30C50.3226 24.1306 45.5468 19.3548 39.6774 19.3548C33.8081 19.3548 29.0323 24.1306 29.0323 30C29.0323 35.8694 33.8081 40.6452 39.6774 40.6452C42.0029 40.6452 44.2113 39.9087 46.0655 38.5161L44.9032 36.9677C43.3868 38.1077 41.58 38.7097 39.6774 38.7097C34.8755 38.7097 30.9677 34.8029 30.9677 30C30.9677 25.1971 34.8755 21.2903 39.6774 21.2903C44.4794 21.2903 48.3871 25.1971 48.3871 30C48.3871 32.2287 47.5461 34.3481 46.02 35.969L47.429 37.2958Z" fill="white" fill-opacity="0.25"/>
<path d="M40.6452 13.5484H38.7097V15.4839H40.6452V13.5484Z" fill="white" fill-opacity="0.25"/>
<path d="M28.728 17.6831L27.3594 19.0517L28.728 20.4203L30.0965 19.0517L28.728 17.6831Z" fill="white" fill-opacity="0.25"/>
<path d="M25.1613 29.0323H23.2258V30.9677H25.1613V29.0323Z" fill="white" fill-opacity="0.25"/>
<path d="M28.7246 39.5795L27.3563 40.9482L28.725 42.3166L30.0934 40.9478L28.7246 39.5795Z" fill="white" fill-opacity="0.25"/>
<path d="M40.6452 44.5161H38.7097V46.4516H40.6452V44.5161Z" fill="white" fill-opacity="0.25"/>
<path d="M50.622 39.5757L49.2534 40.9443L50.622 42.3128L51.9905 40.9443L50.622 39.5757Z" fill="white" fill-opacity="0.25"/>
<path d="M56.129 29.0323H54.1935V30.9677H56.129V29.0323Z" fill="white" fill-opacity="0.25"/>
<path d="M50.6232 17.6875L49.2548 19.0562L50.6236 20.4246L51.9919 19.0559L50.6232 17.6875Z" fill="white" fill-opacity="0.25"/>
</svg>
