<svg width="51" height="51" viewBox="0 0 51 51" fill="none" xmlns="http://www.w3.org/2000/svg">
<g id="6085b0a8d656c851bee02c93_music-note.svg" clip-path="url(#clip0_1_113)">
<path id="Vector" d="M26.9525 42.7658C26.9525 43.5754 27.6077 44.2306 28.4174 44.2306C29.227 44.2306 29.8822 43.5754 29.8822 42.7658V26.2932L28.546 23.7453L26.9525 27.1303V42.7658Z" fill="#00CCB2"/>
<path id="Vector_2" d="M47.4603 36.9064C47.4603 37.7161 48.1155 38.3713 48.9252 38.3713C49.7348 38.3713 50.39 37.7161 50.39 36.9064V20.4338L48.9981 17.9018L47.4603 21.271V36.9064Z" fill="#00AB94"/>
<path id="Vector_3" d="M24.0228 16.3986C24.0228 20.4416 20.7416 23.7228 16.6986 23.7228C15.8782 23.7228 15.2338 23.0782 15.2338 22.258C15.2338 21.4376 15.8782 20.7931 16.6986 20.7931C19.1303 20.7931 21.0931 18.8301 21.0931 16.3986C21.0931 14.9922 20.4487 13.7032 19.306 12.8536C16.9623 11.1543 14.2865 8.97672 12.2064 6.3692V29.5822C12.2064 30.4024 11.562 31.047 10.7416 31.047C9.92117 31.047 9.27673 30.4024 9.27673 29.5822V1.55484C9.27673 0.910211 9.68689 0.353571 10.302 0.148492C10.4487 0.119293 10.5951 0.0899963 10.7416 0.0899963C11.2102 0.0899963 11.6791 0.324274 11.9719 0.73443L13.6419 3.28326C15.5756 6.15445 18.3978 8.54703 21.0344 10.4805C22.9095 11.8576 24.0228 14.084 24.0228 16.3986Z" fill="#FEA832"/>
<path id="Vector_4" d="M24.0228 16.3986C24.0228 20.4416 20.7416 23.7228 16.6986 23.7228C15.8782 23.7228 15.2338 23.0782 15.2338 22.258C15.2338 21.4376 15.8782 20.7931 16.6986 20.7931C19.1303 20.7931 21.0931 18.8301 21.0931 16.3986C21.0931 14.9922 20.4487 13.7032 19.306 12.8536C16.9623 11.1543 14.2865 8.97672 12.2064 6.3692V29.5822C12.2064 30.4024 11.562 31.047 10.7416 31.047V0.0899963C11.2102 0.0899963 11.6791 0.324274 11.9719 0.73443L13.6419 3.28326C15.5756 6.15445 18.3978 8.54703 21.0344 10.4805C22.9095 11.8576 24.0228 14.084 24.0228 16.3986Z" fill="#FF8700"/>
<path id="Vector_5" d="M24.0228 50.09C20.7913 50.09 18.1635 47.4621 18.1635 44.2306C18.1635 40.999 20.7913 38.3712 24.0228 38.3712C27.2544 38.3712 29.8822 40.999 29.8822 44.2306C29.8822 47.4621 27.2544 50.09 24.0228 50.09Z" fill="#00EED0"/>
<path id="Vector_6" d="M10.7416 25.7443C9.68689 24.5137 8.10476 23.7228 6.34705 23.7228C3.12449 23.7228 0.390015 26.3594 0.390015 29.5822C0.390015 32.8047 3.12449 35.4416 6.34705 35.4416C8.10476 35.4416 9.68689 34.6504 10.7416 33.4201C11.6791 32.3946 12.2064 31.047 12.2064 29.5822C12.2064 28.1173 11.6791 26.7696 10.7416 25.7443Z" fill="#FFD400"/>
<path id="Vector_7" d="M44.5306 44.2306C41.2991 44.2306 38.6713 41.6028 38.6713 38.3712C38.6713 35.1397 41.2991 32.5118 44.5306 32.5118C47.7622 32.5118 50.39 35.1397 50.39 38.3712C50.39 41.6028 47.7622 44.2306 44.5306 44.2306Z" fill="#00CCB2"/>
<path id="Vector_8" d="M12.2064 29.5822C12.2064 31.047 11.6791 32.3946 10.7416 33.4201V25.7443C11.6791 26.7696 12.2064 28.1173 12.2064 29.5822Z" fill="#FDBF00"/>
<path id="Vector_9" d="M49.8041 12.2969C49.4525 12.0333 48.9546 11.9454 48.515 12.0624L38.6713 14.875L28.0072 17.9218C27.3921 18.0976 26.9525 18.6835 26.9525 19.3282V27.121L29.8822 26.3008L38.6713 23.7812L47.4603 21.2617L50.39 20.4414V13.4689C50.39 13 50.1849 12.59 49.8041 12.2969Z" fill="#00EED0"/>
<path id="Vector_10" d="M50.39 13.4689V20.4416L47.4603 21.2618L38.6713 23.7813V14.8752L48.515 12.0626C48.9546 11.9455 49.4525 12.0335 49.8041 12.297C50.1849 12.59 50.39 13.0001 50.39 13.4689Z" fill="#00CCB2"/>
</g>
<defs>
<clipPath id="clip0_1_113">
<rect width="50" height="50" fill="white" transform="translate(0.390015 0.0899963)"/>
</clipPath>
</defs>
</svg>
